<mxfile host="app.diagrams.net" modified="2023-12-14T19:42:40.193Z" agent="Mozilla/5.0 (Windows NT 10.0; Win64; x64) AppleWebKit/537.36 (KHTML, like Gecko) Chrome/120.0.0.0 Safari/537.36" etag="uOmOCC5E8Je4S6D_7z_H" version="22.1.8" type="device">
  <diagram id="R2lEEEUBdFMjLlhIrx00" name="Page-1">
    <mxGraphModel dx="2422" dy="682" grid="1" gridSize="10" guides="1" tooltips="1" connect="1" arrows="1" fold="1" page="1" pageScale="1" pageWidth="850" pageHeight="1100" math="0" shadow="0" extFonts="Permanent Marker^https://fonts.googleapis.com/css?family=Permanent+Marker">
      <root>
        <mxCell id="0" />
        <mxCell id="1" parent="0" />
        <mxCell id="6sIepBBf1dvNzspZAciI-65" style="edgeStyle=orthogonalEdgeStyle;rounded=0;orthogonalLoop=1;jettySize=auto;html=1;entryX=0.5;entryY=1;entryDx=0;entryDy=0;endArrow=none;endFill=0;" parent="1" source="Xl_F5yLaofZVcRbHejWL-1" target="6sIepBBf1dvNzspZAciI-63" edge="1">
          <mxGeometry relative="1" as="geometry" />
        </mxCell>
        <mxCell id="Xl_F5yLaofZVcRbHejWL-1" value="CA" style="whiteSpace=wrap;html=1;align=center;" parent="1" vertex="1">
          <mxGeometry x="100" y="550" width="80" height="40" as="geometry" />
        </mxCell>
        <mxCell id="Xl_F5yLaofZVcRbHejWL-2" value="VEGETAL" style="whiteSpace=wrap;html=1;align=center;" parent="1" vertex="1">
          <mxGeometry x="280" y="720" width="100" height="40" as="geometry" />
        </mxCell>
        <mxCell id="6sIepBBf1dvNzspZAciI-76" value="" style="edgeStyle=orthogonalEdgeStyle;rounded=0;orthogonalLoop=1;jettySize=auto;html=1;endArrow=none;endFill=0;" parent="1" source="Xl_F5yLaofZVcRbHejWL-3" target="6sIepBBf1dvNzspZAciI-60" edge="1">
          <mxGeometry relative="1" as="geometry" />
        </mxCell>
        <mxCell id="6sIepBBf1dvNzspZAciI-78" style="edgeStyle=orthogonalEdgeStyle;rounded=0;orthogonalLoop=1;jettySize=auto;html=1;entryX=0.5;entryY=0;entryDx=0;entryDy=0;endArrow=none;endFill=0;" parent="1" source="Xl_F5yLaofZVcRbHejWL-3" target="6sIepBBf1dvNzspZAciI-59" edge="1">
          <mxGeometry relative="1" as="geometry">
            <mxPoint x="735" y="770" as="targetPoint" />
            <Array as="points">
              <mxPoint x="705" y="740" />
            </Array>
          </mxGeometry>
        </mxCell>
        <mxCell id="Xl_F5yLaofZVcRbHejWL-3" value="ANIMAL" style="whiteSpace=wrap;html=1;align=center;" parent="1" vertex="1">
          <mxGeometry x="575" y="720" width="100" height="40" as="geometry" />
        </mxCell>
        <mxCell id="6sIepBBf1dvNzspZAciI-16" style="edgeStyle=orthogonalEdgeStyle;rounded=0;orthogonalLoop=1;jettySize=auto;html=1;endArrow=none;endFill=0;" parent="1" source="6sIepBBf1dvNzspZAciI-197" target="6sIepBBf1dvNzspZAciI-17" edge="1">
          <mxGeometry relative="1" as="geometry">
            <mxPoint x="624.9999999999998" y="680" as="targetPoint" />
          </mxGeometry>
        </mxCell>
        <mxCell id="6sIepBBf1dvNzspZAciI-225" style="edgeStyle=orthogonalEdgeStyle;rounded=0;orthogonalLoop=1;jettySize=auto;html=1;exitX=1;exitY=0.25;exitDx=0;exitDy=0;entryX=0.5;entryY=1;entryDx=0;entryDy=0;endArrow=none;endFill=0;" parent="1" source="Xl_F5yLaofZVcRbHejWL-4" target="6sIepBBf1dvNzspZAciI-223" edge="1">
          <mxGeometry relative="1" as="geometry">
            <Array as="points">
              <mxPoint x="675" y="640" />
              <mxPoint x="865" y="640" />
            </Array>
          </mxGeometry>
        </mxCell>
        <mxCell id="Xl_F5yLaofZVcRbHejWL-4" value="ESPECIE" style="whiteSpace=wrap;html=1;align=center;" parent="1" vertex="1">
          <mxGeometry x="575" y="620" width="100" height="40" as="geometry" />
        </mxCell>
        <mxCell id="6sIepBBf1dvNzspZAciI-68" style="edgeStyle=orthogonalEdgeStyle;rounded=0;orthogonalLoop=1;jettySize=auto;html=1;entryX=0.5;entryY=0;entryDx=0;entryDy=0;endArrow=none;endFill=0;" parent="1" source="Xl_F5yLaofZVcRbHejWL-5" target="6sIepBBf1dvNzspZAciI-62" edge="1">
          <mxGeometry relative="1" as="geometry" />
        </mxCell>
        <mxCell id="6sIepBBf1dvNzspZAciI-134" style="edgeStyle=orthogonalEdgeStyle;rounded=0;orthogonalLoop=1;jettySize=auto;html=1;entryX=0.5;entryY=1;entryDx=0;entryDy=0;endArrow=none;endFill=0;" parent="1" source="Xl_F5yLaofZVcRbHejWL-5" target="6sIepBBf1dvNzspZAciI-57" edge="1">
          <mxGeometry relative="1" as="geometry">
            <Array as="points">
              <mxPoint x="220" y="290" />
              <mxPoint x="220" y="290" />
            </Array>
          </mxGeometry>
        </mxCell>
        <mxCell id="Xl_F5yLaofZVcRbHejWL-5" value="PARQUE NATURAL" style="whiteSpace=wrap;html=1;align=center;" parent="1" vertex="1">
          <mxGeometry x="120" y="300" width="160" height="50" as="geometry" />
        </mxCell>
        <mxCell id="Xl_F5yLaofZVcRbHejWL-6" value="MINERAL" style="whiteSpace=wrap;html=1;align=center;" parent="1" vertex="1">
          <mxGeometry x="765" y="720" width="100" height="40" as="geometry" />
        </mxCell>
        <mxCell id="6sIepBBf1dvNzspZAciI-71" style="edgeStyle=orthogonalEdgeStyle;rounded=0;orthogonalLoop=1;jettySize=auto;html=1;exitX=0.5;exitY=1;exitDx=0;exitDy=0;entryX=0;entryY=0.5;entryDx=0;entryDy=0;endArrow=none;endFill=0;" parent="1" source="Xl_F5yLaofZVcRbHejWL-7" target="6sIepBBf1dvNzspZAciI-61" edge="1">
          <mxGeometry relative="1" as="geometry">
            <Array as="points">
              <mxPoint x="355" y="480" />
              <mxPoint x="355" y="580" />
            </Array>
          </mxGeometry>
        </mxCell>
        <mxCell id="6sIepBBf1dvNzspZAciI-146" style="edgeStyle=orthogonalEdgeStyle;rounded=0;orthogonalLoop=1;jettySize=auto;html=1;endArrow=none;endFill=0;" parent="1" source="Xl_F5yLaofZVcRbHejWL-7" target="6sIepBBf1dvNzspZAciI-62" edge="1">
          <mxGeometry relative="1" as="geometry" />
        </mxCell>
        <mxCell id="Xl_F5yLaofZVcRbHejWL-7" value="AREA" style="whiteSpace=wrap;html=1;align=center;" parent="1" vertex="1">
          <mxGeometry x="345" y="440" width="100" height="40" as="geometry" />
        </mxCell>
        <mxCell id="6sIepBBf1dvNzspZAciI-148" style="edgeStyle=orthogonalEdgeStyle;rounded=0;orthogonalLoop=1;jettySize=auto;html=1;entryX=0;entryY=0.5;entryDx=0;entryDy=0;endArrow=none;endFill=0;" parent="1" source="Xl_F5yLaofZVcRbHejWL-9" target="Xl_F5yLaofZVcRbHejWL-7" edge="1">
          <mxGeometry relative="1" as="geometry" />
        </mxCell>
        <mxCell id="Xl_F5yLaofZVcRbHejWL-9" value="extension" style="ellipse;whiteSpace=wrap;html=1;align=center;" parent="1" vertex="1">
          <mxGeometry x="250" y="440" width="60" height="40" as="geometry" />
        </mxCell>
        <mxCell id="6sIepBBf1dvNzspZAciI-21" style="edgeStyle=orthogonalEdgeStyle;rounded=0;orthogonalLoop=1;jettySize=auto;html=1;entryX=1;entryY=0.25;entryDx=0;entryDy=0;endArrow=none;endFill=0;" parent="1" source="Xl_F5yLaofZVcRbHejWL-10" target="Xl_F5yLaofZVcRbHejWL-4" edge="1">
          <mxGeometry relative="1" as="geometry">
            <Array as="points">
              <mxPoint x="728" y="620" />
              <mxPoint x="675" y="620" />
            </Array>
          </mxGeometry>
        </mxCell>
        <mxCell id="Xl_F5yLaofZVcRbHejWL-10" value="denom_cientifica" style="ellipse;whiteSpace=wrap;html=1;align=center;" parent="1" vertex="1">
          <mxGeometry x="665" y="560" width="125" height="40" as="geometry" />
        </mxCell>
        <mxCell id="Xl_F5yLaofZVcRbHejWL-11" value="fecha" style="ellipse;whiteSpace=wrap;html=1;align=center;" parent="1" vertex="1">
          <mxGeometry x="60" y="350" width="50" height="40" as="geometry" />
        </mxCell>
        <mxCell id="6sIepBBf1dvNzspZAciI-73" style="edgeStyle=orthogonalEdgeStyle;rounded=0;orthogonalLoop=1;jettySize=auto;html=1;entryX=0.5;entryY=1;entryDx=0;entryDy=0;endArrow=none;endFill=0;" parent="1" source="Xl_F5yLaofZVcRbHejWL-13" target="6sIepBBf1dvNzspZAciI-61" edge="1">
          <mxGeometry relative="1" as="geometry">
            <Array as="points">
              <mxPoint x="435" y="620" />
              <mxPoint x="435" y="620" />
            </Array>
          </mxGeometry>
        </mxCell>
        <mxCell id="Xl_F5yLaofZVcRbHejWL-13" value="inventario" style="ellipse;whiteSpace=wrap;html=1;align=center;" parent="1" vertex="1">
          <mxGeometry x="400" y="630" width="70" height="40" as="geometry" />
        </mxCell>
        <mxCell id="Xl_F5yLaofZVcRbHejWL-14" value="tipo_alimentacion" style="ellipse;whiteSpace=wrap;html=1;align=center;" parent="1" vertex="1">
          <mxGeometry x="385" y="800" width="120" height="40" as="geometry" />
        </mxCell>
        <mxCell id="Xl_F5yLaofZVcRbHejWL-15" value="fin_celo" style="ellipse;whiteSpace=wrap;html=1;align=center;" parent="1" vertex="1">
          <mxGeometry x="580" y="870" width="100" height="40" as="geometry" />
        </mxCell>
        <mxCell id="Xl_F5yLaofZVcRbHejWL-16" value="inicio_celo" style="ellipse;whiteSpace=wrap;html=1;align=center;" parent="1" vertex="1">
          <mxGeometry x="460" y="850" width="100" height="40" as="geometry" />
        </mxCell>
        <mxCell id="Xl_F5yLaofZVcRbHejWL-17" value="floracion" style="ellipse;whiteSpace=wrap;html=1;align=center;" parent="1" vertex="1">
          <mxGeometry x="170" y="780" width="100" height="40" as="geometry" />
        </mxCell>
        <mxCell id="6sIepBBf1dvNzspZAciI-11" style="edgeStyle=orthogonalEdgeStyle;rounded=0;orthogonalLoop=1;jettySize=auto;html=1;endArrow=none;endFill=0;" parent="1" source="Xl_F5yLaofZVcRbHejWL-18" edge="1">
          <mxGeometry relative="1" as="geometry">
            <mxPoint x="280" y="740" as="targetPoint" />
            <Array as="points">
              <mxPoint x="280" y="740" />
              <mxPoint x="280" y="740" />
            </Array>
          </mxGeometry>
        </mxCell>
        <mxCell id="Xl_F5yLaofZVcRbHejWL-18" value="fin_floracion" style="ellipse;whiteSpace=wrap;html=1;align=center;" parent="1" vertex="1">
          <mxGeometry x="162.5" y="720" width="100" height="40" as="geometry" />
        </mxCell>
        <mxCell id="6sIepBBf1dvNzspZAciI-10" style="edgeStyle=orthogonalEdgeStyle;rounded=0;orthogonalLoop=1;jettySize=auto;html=1;exitX=1;exitY=0.5;exitDx=0;exitDy=0;entryX=0.25;entryY=0;entryDx=0;entryDy=0;endArrow=none;endFill=0;" parent="1" source="Xl_F5yLaofZVcRbHejWL-19" target="Xl_F5yLaofZVcRbHejWL-2" edge="1">
          <mxGeometry relative="1" as="geometry">
            <Array as="points">
              <mxPoint x="290" y="680" />
              <mxPoint x="290" y="720" />
            </Array>
          </mxGeometry>
        </mxCell>
        <mxCell id="Xl_F5yLaofZVcRbHejWL-19" value="inicio_floracion" style="ellipse;whiteSpace=wrap;html=1;align=center;" parent="1" vertex="1">
          <mxGeometry x="162.5" y="660" width="100" height="40" as="geometry" />
        </mxCell>
        <mxCell id="6sIepBBf1dvNzspZAciI-147" style="edgeStyle=orthogonalEdgeStyle;rounded=0;orthogonalLoop=1;jettySize=auto;html=1;entryX=0.25;entryY=0;entryDx=0;entryDy=0;endArrow=none;endFill=0;" parent="1" source="Xl_F5yLaofZVcRbHejWL-20" target="Xl_F5yLaofZVcRbHejWL-7" edge="1">
          <mxGeometry relative="1" as="geometry">
            <Array as="points">
              <mxPoint x="350" y="410" />
              <mxPoint x="350" y="440" />
            </Array>
          </mxGeometry>
        </mxCell>
        <mxCell id="Xl_F5yLaofZVcRbHejWL-20" value="nombre" style="ellipse;whiteSpace=wrap;html=1;align=center;fontStyle=4;" parent="1" vertex="1">
          <mxGeometry x="250" y="390" width="70" height="40" as="geometry" />
        </mxCell>
        <mxCell id="Xl_F5yLaofZVcRbHejWL-21" value="CRISTAL" style="whiteSpace=wrap;html=1;align=center;" parent="1" vertex="1">
          <mxGeometry x="720" y="870" width="100" height="40" as="geometry" />
        </mxCell>
        <mxCell id="Xl_F5yLaofZVcRbHejWL-22" value="ROCA" style="whiteSpace=wrap;html=1;align=center;" parent="1" vertex="1">
          <mxGeometry x="840" y="870" width="100" height="40" as="geometry" />
        </mxCell>
        <mxCell id="6sIepBBf1dvNzspZAciI-142" style="edgeStyle=orthogonalEdgeStyle;rounded=0;orthogonalLoop=1;jettySize=auto;html=1;entryX=1;entryY=0.5;entryDx=0;entryDy=0;endArrow=none;endFill=0;" parent="1" source="Xl_F5yLaofZVcRbHejWL-25" target="6sIepBBf1dvNzspZAciI-94" edge="1">
          <mxGeometry relative="1" as="geometry">
            <mxPoint x="740" y="610.0000000000002" as="targetPoint" />
            <Array as="points">
              <mxPoint x="720" y="500" />
            </Array>
          </mxGeometry>
        </mxCell>
        <mxCell id="Xl_F5yLaofZVcRbHejWL-25" value="CONSERVACION" style="whiteSpace=wrap;html=1;align=center;" parent="1" vertex="1">
          <mxGeometry x="680" y="200" width="120" height="40" as="geometry" />
        </mxCell>
        <mxCell id="Xl_F5yLaofZVcRbHejWL-26" value="PERSONAL" style="whiteSpace=wrap;html=1;align=center;" parent="1" vertex="1">
          <mxGeometry x="620" y="90" width="100" height="40" as="geometry" />
        </mxCell>
        <mxCell id="Xl_F5yLaofZVcRbHejWL-27" value="direccion" style="ellipse;whiteSpace=wrap;html=1;align=center;" parent="1" vertex="1">
          <mxGeometry x="730" width="70" height="40" as="geometry" />
        </mxCell>
        <mxCell id="Xl_F5yLaofZVcRbHejWL-28" value="nombre" style="ellipse;whiteSpace=wrap;html=1;align=center;" parent="1" vertex="1">
          <mxGeometry x="620" width="65" height="40" as="geometry" />
        </mxCell>
        <mxCell id="Xl_F5yLaofZVcRbHejWL-29" value="SS" style="ellipse;whiteSpace=wrap;html=1;align=center;" parent="1" vertex="1">
          <mxGeometry x="540" y="20" width="50" height="40" as="geometry" />
        </mxCell>
        <mxCell id="6sIepBBf1dvNzspZAciI-37" style="edgeStyle=orthogonalEdgeStyle;rounded=0;orthogonalLoop=1;jettySize=auto;html=1;entryX=0;entryY=0.5;entryDx=0;entryDy=0;endArrow=none;endFill=0;" parent="1" source="Xl_F5yLaofZVcRbHejWL-30" target="Xl_F5yLaofZVcRbHejWL-26" edge="1">
          <mxGeometry relative="1" as="geometry" />
        </mxCell>
        <mxCell id="Xl_F5yLaofZVcRbHejWL-30" value="DNI" style="ellipse;whiteSpace=wrap;html=1;align=center;fontStyle=4;" parent="1" vertex="1">
          <mxGeometry x="510" y="70" width="50" height="40" as="geometry" />
        </mxCell>
        <mxCell id="Xl_F5yLaofZVcRbHejWL-31" value="telefonos" style="ellipse;whiteSpace=wrap;html=1;align=center;" parent="1" vertex="1">
          <mxGeometry x="770" y="60" width="75" height="40" as="geometry" />
        </mxCell>
        <mxCell id="6sIepBBf1dvNzspZAciI-41" style="edgeStyle=orthogonalEdgeStyle;rounded=0;orthogonalLoop=1;jettySize=auto;html=1;entryX=1;entryY=0.5;entryDx=0;entryDy=0;endArrow=none;endFill=0;" parent="1" source="Xl_F5yLaofZVcRbHejWL-33" target="Xl_F5yLaofZVcRbHejWL-26" edge="1">
          <mxGeometry relative="1" as="geometry" />
        </mxCell>
        <mxCell id="Xl_F5yLaofZVcRbHejWL-33" value="sueldo" style="ellipse;whiteSpace=wrap;html=1;align=center;" parent="1" vertex="1">
          <mxGeometry x="760" y="110" width="60" height="40" as="geometry" />
        </mxCell>
        <mxCell id="6sIepBBf1dvNzspZAciI-91" value="" style="edgeStyle=orthogonalEdgeStyle;rounded=0;orthogonalLoop=1;jettySize=auto;html=1;endArrow=none;endFill=0;" parent="1" source="Xl_F5yLaofZVcRbHejWL-34" target="6sIepBBf1dvNzspZAciI-88" edge="1">
          <mxGeometry relative="1" as="geometry">
            <Array as="points">
              <mxPoint x="865" y="250" />
              <mxPoint x="865" y="250" />
            </Array>
          </mxGeometry>
        </mxCell>
        <mxCell id="6sIepBBf1dvNzspZAciI-93" style="edgeStyle=orthogonalEdgeStyle;rounded=0;orthogonalLoop=1;jettySize=auto;html=1;exitX=0.5;exitY=0;exitDx=0;exitDy=0;entryX=0.5;entryY=0;entryDx=0;entryDy=0;endArrow=none;endFill=0;" parent="1" source="Xl_F5yLaofZVcRbHejWL-34" edge="1">
          <mxGeometry relative="1" as="geometry">
            <mxPoint x="673.2874999999999" y="159.20500000000004" as="targetPoint" />
            <Array as="points">
              <mxPoint x="900" y="160" />
            </Array>
          </mxGeometry>
        </mxCell>
        <mxCell id="Xl_F5yLaofZVcRbHejWL-34" value="INVESTIGADOR" style="whiteSpace=wrap;html=1;align=center;" parent="1" vertex="1">
          <mxGeometry x="845" y="200" width="110" height="40" as="geometry" />
        </mxCell>
        <mxCell id="6sIepBBf1dvNzspZAciI-133" style="edgeStyle=orthogonalEdgeStyle;rounded=0;orthogonalLoop=1;jettySize=auto;html=1;endArrow=none;endFill=0;entryX=0.5;entryY=0;entryDx=0;entryDy=0;" parent="1" source="Xl_F5yLaofZVcRbHejWL-35" target="6sIepBBf1dvNzspZAciI-129" edge="1">
          <mxGeometry relative="1" as="geometry">
            <Array as="points">
              <mxPoint x="600" y="330" />
              <mxPoint x="652" y="330" />
            </Array>
          </mxGeometry>
        </mxCell>
        <mxCell id="6sIepBBf1dvNzspZAciI-217" style="edgeStyle=orthogonalEdgeStyle;rounded=0;orthogonalLoop=1;jettySize=auto;html=1;entryX=0.5;entryY=0;entryDx=0;entryDy=0;endArrow=none;endFill=0;" parent="1" source="Xl_F5yLaofZVcRbHejWL-35" target="6sIepBBf1dvNzspZAciI-215" edge="1">
          <mxGeometry relative="1" as="geometry">
            <Array as="points">
              <mxPoint x="550" y="266" />
              <mxPoint x="530" y="266" />
            </Array>
          </mxGeometry>
        </mxCell>
        <mxCell id="Xl_F5yLaofZVcRbHejWL-35" value="VIGILANCIA" style="whiteSpace=wrap;html=1;align=center;" parent="1" vertex="1">
          <mxGeometry x="530" y="200" width="100" height="40" as="geometry" />
        </mxCell>
        <mxCell id="6sIepBBf1dvNzspZAciI-116" style="edgeStyle=orthogonalEdgeStyle;rounded=0;orthogonalLoop=1;jettySize=auto;html=1;entryX=0.5;entryY=0;entryDx=0;entryDy=0;endArrow=none;endFill=0;exitX=0;exitY=0.5;exitDx=0;exitDy=0;" parent="1" source="Xl_F5yLaofZVcRbHejWL-36" target="6sIepBBf1dvNzspZAciI-58" edge="1">
          <mxGeometry relative="1" as="geometry">
            <Array as="points">
              <mxPoint x="345" y="220" />
            </Array>
          </mxGeometry>
        </mxCell>
        <mxCell id="Xl_F5yLaofZVcRbHejWL-36" value="CONTROL_ACCESO" style="whiteSpace=wrap;html=1;align=center;" parent="1" vertex="1">
          <mxGeometry x="370" y="200" width="135" height="40" as="geometry" />
        </mxCell>
        <mxCell id="Xl_F5yLaofZVcRbHejWL-38" value="VEHICULO" style="whiteSpace=wrap;html=1;align=center;" parent="1" vertex="1">
          <mxGeometry x="475" y="390" width="100" height="40" as="geometry" />
        </mxCell>
        <mxCell id="6sIepBBf1dvNzspZAciI-125" style="edgeStyle=orthogonalEdgeStyle;rounded=0;orthogonalLoop=1;jettySize=auto;html=1;endArrow=none;endFill=0;" parent="1" source="Xl_F5yLaofZVcRbHejWL-39" target="6sIepBBf1dvNzspZAciI-124" edge="1">
          <mxGeometry relative="1" as="geometry">
            <Array as="points">
              <mxPoint x="-230" y="100" />
              <mxPoint x="-230" y="100" />
            </Array>
          </mxGeometry>
        </mxCell>
        <mxCell id="6sIepBBf1dvNzspZAciI-160" style="edgeStyle=orthogonalEdgeStyle;rounded=0;orthogonalLoop=1;jettySize=auto;html=1;entryX=0;entryY=0.5;entryDx=0;entryDy=0;endArrow=none;endFill=0;" parent="1" source="Xl_F5yLaofZVcRbHejWL-39" target="6sIepBBf1dvNzspZAciI-159" edge="1">
          <mxGeometry relative="1" as="geometry" />
        </mxCell>
        <mxCell id="Xl_F5yLaofZVcRbHejWL-39" value="VISITANTE" style="whiteSpace=wrap;html=1;align=center;" parent="1" vertex="1">
          <mxGeometry x="-140" y="80" width="100" height="40" as="geometry" />
        </mxCell>
        <mxCell id="6sIepBBf1dvNzspZAciI-224" style="edgeStyle=orthogonalEdgeStyle;rounded=0;orthogonalLoop=1;jettySize=auto;html=1;entryX=0.5;entryY=0;entryDx=0;entryDy=0;endArrow=none;endFill=0;" parent="1" source="Xl_F5yLaofZVcRbHejWL-40" target="6sIepBBf1dvNzspZAciI-223" edge="1">
          <mxGeometry relative="1" as="geometry">
            <Array as="points">
              <mxPoint x="865" y="450" />
              <mxPoint x="865" y="450" />
            </Array>
          </mxGeometry>
        </mxCell>
        <mxCell id="Xl_F5yLaofZVcRbHejWL-40" value="PROYECTO" style="whiteSpace=wrap;html=1;align=center;" parent="1" vertex="1">
          <mxGeometry x="810" y="390" width="100" height="40" as="geometry" />
        </mxCell>
        <mxCell id="6sIepBBf1dvNzspZAciI-168" style="edgeStyle=orthogonalEdgeStyle;rounded=0;orthogonalLoop=1;jettySize=auto;html=1;endArrow=none;endFill=0;" parent="1" source="Xl_F5yLaofZVcRbHejWL-41" edge="1">
          <mxGeometry relative="1" as="geometry">
            <mxPoint x="910" y="420" as="targetPoint" />
            <Array as="points">
              <mxPoint x="990" y="440" />
              <mxPoint x="920" y="440" />
              <mxPoint x="920" y="420" />
            </Array>
          </mxGeometry>
        </mxCell>
        <mxCell id="Xl_F5yLaofZVcRbHejWL-41" value="fin_realizacion" style="ellipse;whiteSpace=wrap;html=1;align=center;" parent="1" vertex="1">
          <mxGeometry x="940" y="460" width="100" height="40" as="geometry" />
        </mxCell>
        <mxCell id="6sIepBBf1dvNzspZAciI-169" style="edgeStyle=orthogonalEdgeStyle;rounded=0;orthogonalLoop=1;jettySize=auto;html=1;endArrow=none;endFill=0;" parent="1" source="Xl_F5yLaofZVcRbHejWL-42" edge="1">
          <mxGeometry relative="1" as="geometry">
            <mxPoint x="910" y="420" as="targetPoint" />
            <Array as="points">
              <mxPoint x="910" y="410" />
            </Array>
          </mxGeometry>
        </mxCell>
        <mxCell id="Xl_F5yLaofZVcRbHejWL-42" value="presupuesto" style="ellipse;whiteSpace=wrap;html=1;align=center;" parent="1" vertex="1">
          <mxGeometry x="1030" y="390" width="100" height="40" as="geometry" />
        </mxCell>
        <mxCell id="6sIepBBf1dvNzspZAciI-170" style="edgeStyle=orthogonalEdgeStyle;rounded=0;orthogonalLoop=1;jettySize=auto;html=1;entryX=0;entryY=0.5;entryDx=0;entryDy=0;endArrow=none;endFill=0;" parent="1" source="Xl_F5yLaofZVcRbHejWL-43" target="Xl_F5yLaofZVcRbHejWL-40" edge="1">
          <mxGeometry relative="1" as="geometry" />
        </mxCell>
        <mxCell id="Xl_F5yLaofZVcRbHejWL-43" value="id" style="ellipse;whiteSpace=wrap;html=1;align=center;fontStyle=4;" parent="1" vertex="1">
          <mxGeometry x="765" y="450" width="50" height="40" as="geometry" />
        </mxCell>
        <mxCell id="6sIepBBf1dvNzspZAciI-167" style="edgeStyle=orthogonalEdgeStyle;rounded=0;orthogonalLoop=1;jettySize=auto;html=1;entryX=1;entryY=0.25;entryDx=0;entryDy=0;endArrow=none;endFill=0;" parent="1" source="Xl_F5yLaofZVcRbHejWL-44" target="Xl_F5yLaofZVcRbHejWL-40" edge="1">
          <mxGeometry relative="1" as="geometry" />
        </mxCell>
        <mxCell id="Xl_F5yLaofZVcRbHejWL-44" value="inicio_realizacion" style="ellipse;whiteSpace=wrap;html=1;align=center;" parent="1" vertex="1">
          <mxGeometry x="940" y="350" width="130" height="40" as="geometry" />
        </mxCell>
        <mxCell id="6sIepBBf1dvNzspZAciI-218" style="edgeStyle=orthogonalEdgeStyle;rounded=0;orthogonalLoop=1;jettySize=auto;html=1;entryX=1;entryY=0.25;entryDx=0;entryDy=0;endArrow=none;endFill=0;" parent="1" source="Xl_F5yLaofZVcRbHejWL-46" target="Xl_F5yLaofZVcRbHejWL-38" edge="1">
          <mxGeometry relative="1" as="geometry">
            <Array as="points">
              <mxPoint x="583" y="400" />
            </Array>
          </mxGeometry>
        </mxCell>
        <mxCell id="Xl_F5yLaofZVcRbHejWL-46" value="tipo" style="ellipse;whiteSpace=wrap;html=1;align=center;" parent="1" vertex="1">
          <mxGeometry x="557.5" y="343" width="50" height="40" as="geometry" />
        </mxCell>
        <mxCell id="6sIepBBf1dvNzspZAciI-219" style="edgeStyle=orthogonalEdgeStyle;rounded=0;orthogonalLoop=1;jettySize=auto;html=1;entryX=0;entryY=0.25;entryDx=0;entryDy=0;endArrow=none;endFill=0;" parent="1" source="Xl_F5yLaofZVcRbHejWL-47" target="Xl_F5yLaofZVcRbHejWL-38" edge="1">
          <mxGeometry relative="1" as="geometry" />
        </mxCell>
        <mxCell id="Xl_F5yLaofZVcRbHejWL-47" value="matricula" style="ellipse;whiteSpace=wrap;html=1;align=center;fontStyle=4;" parent="1" vertex="1">
          <mxGeometry x="435" y="340" width="70" height="40" as="geometry" />
        </mxCell>
        <mxCell id="Xl_F5yLaofZVcRbHejWL-49" value="titulacion" style="ellipse;whiteSpace=wrap;html=1;align=center;" parent="1" vertex="1">
          <mxGeometry x="910" y="135" width="70" height="40" as="geometry" />
        </mxCell>
        <mxCell id="6sIepBBf1dvNzspZAciI-32" style="edgeStyle=orthogonalEdgeStyle;rounded=0;orthogonalLoop=1;jettySize=auto;html=1;entryX=0.192;entryY=1.025;entryDx=0;entryDy=0;endArrow=none;endFill=0;entryPerimeter=0;" parent="1" source="Xl_F5yLaofZVcRbHejWL-50" target="Xl_F5yLaofZVcRbHejWL-25" edge="1">
          <mxGeometry relative="1" as="geometry" />
        </mxCell>
        <mxCell id="Xl_F5yLaofZVcRbHejWL-50" value="especialidad" style="ellipse;whiteSpace=wrap;html=1;align=center;" parent="1" vertex="1">
          <mxGeometry x="612.5" y="270" width="80" height="40" as="geometry" />
        </mxCell>
        <mxCell id="6sIepBBf1dvNzspZAciI-155" style="edgeStyle=orthogonalEdgeStyle;rounded=0;orthogonalLoop=1;jettySize=auto;html=1;entryX=0;entryY=0.25;entryDx=0;entryDy=0;endArrow=none;endFill=0;" parent="1" source="Xl_F5yLaofZVcRbHejWL-51" target="Xl_F5yLaofZVcRbHejWL-39" edge="1">
          <mxGeometry relative="1" as="geometry">
            <Array as="points">
              <mxPoint x="-160" y="90" />
            </Array>
          </mxGeometry>
        </mxCell>
        <mxCell id="Xl_F5yLaofZVcRbHejWL-51" value="DNI" style="ellipse;whiteSpace=wrap;html=1;align=center;fontStyle=4;" parent="1" vertex="1">
          <mxGeometry x="-182.5" y="20" width="50" height="40" as="geometry" />
        </mxCell>
        <mxCell id="Xl_F5yLaofZVcRbHejWL-53" value="domicilio" style="ellipse;whiteSpace=wrap;html=1;align=center;" parent="1" vertex="1">
          <mxGeometry x="-127.5" width="60" height="40" as="geometry" />
        </mxCell>
        <mxCell id="6sIepBBf1dvNzspZAciI-157" style="edgeStyle=orthogonalEdgeStyle;rounded=0;orthogonalLoop=1;jettySize=auto;html=1;entryX=0.75;entryY=0;entryDx=0;entryDy=0;endArrow=none;endFill=0;" parent="1" source="Xl_F5yLaofZVcRbHejWL-54" target="Xl_F5yLaofZVcRbHejWL-39" edge="1">
          <mxGeometry relative="1" as="geometry" />
        </mxCell>
        <mxCell id="Xl_F5yLaofZVcRbHejWL-54" value="profesion" style="ellipse;whiteSpace=wrap;html=1;align=center;" parent="1" vertex="1">
          <mxGeometry x="-60" width="70" height="40" as="geometry" />
        </mxCell>
        <mxCell id="6sIepBBf1dvNzspZAciI-139" style="edgeStyle=orthogonalEdgeStyle;rounded=0;orthogonalLoop=1;jettySize=auto;html=1;entryX=0;entryY=0.5;entryDx=0;entryDy=0;endArrow=none;endFill=0;" parent="1" source="Xl_F5yLaofZVcRbHejWL-55" target="6sIepBBf1dvNzspZAciI-113" edge="1">
          <mxGeometry relative="1" as="geometry" />
        </mxCell>
        <mxCell id="Xl_F5yLaofZVcRbHejWL-55" value="ALOJAMIENTO" style="whiteSpace=wrap;html=1;align=center;" parent="1" vertex="1">
          <mxGeometry x="-167.5" y="330" width="100" height="40" as="geometry" />
        </mxCell>
        <mxCell id="6sIepBBf1dvNzspZAciI-152" style="edgeStyle=orthogonalEdgeStyle;rounded=0;orthogonalLoop=1;jettySize=auto;html=1;exitX=0.5;exitY=0;exitDx=0;exitDy=0;entryX=1;entryY=0.75;entryDx=0;entryDy=0;endArrow=none;endFill=0;" parent="1" source="Xl_F5yLaofZVcRbHejWL-56" target="Xl_F5yLaofZVcRbHejWL-55" edge="1">
          <mxGeometry relative="1" as="geometry">
            <Array as="points">
              <mxPoint x="-55" y="360" />
            </Array>
          </mxGeometry>
        </mxCell>
        <mxCell id="Xl_F5yLaofZVcRbHejWL-56" value="categoria" style="ellipse;whiteSpace=wrap;html=1;align=center;" parent="1" vertex="1">
          <mxGeometry x="-90" y="380" width="70" height="40" as="geometry" />
        </mxCell>
        <mxCell id="6sIepBBf1dvNzspZAciI-153" style="edgeStyle=orthogonalEdgeStyle;rounded=0;orthogonalLoop=1;jettySize=auto;html=1;entryX=0;entryY=0.75;entryDx=0;entryDy=0;endArrow=none;endFill=0;" parent="1" source="Xl_F5yLaofZVcRbHejWL-57" target="Xl_F5yLaofZVcRbHejWL-55" edge="1">
          <mxGeometry relative="1" as="geometry" />
        </mxCell>
        <mxCell id="Xl_F5yLaofZVcRbHejWL-57" value="capacidad" style="ellipse;whiteSpace=wrap;html=1;align=center;" parent="1" vertex="1">
          <mxGeometry x="-220" y="380" width="80" height="40" as="geometry" />
        </mxCell>
        <mxCell id="Xl_F5yLaofZVcRbHejWL-58" value="EXCURSION" style="whiteSpace=wrap;html=1;align=center;" parent="1" vertex="1">
          <mxGeometry x="-375" y="320" width="100" height="40" as="geometry" />
        </mxCell>
        <mxCell id="Xl_F5yLaofZVcRbHejWL-59" value="tipo" style="ellipse;whiteSpace=wrap;html=1;align=center;" parent="1" vertex="1">
          <mxGeometry x="-265" y="290" width="45" height="40" as="geometry" />
        </mxCell>
        <mxCell id="6sIepBBf1dvNzspZAciI-55" style="edgeStyle=orthogonalEdgeStyle;rounded=0;orthogonalLoop=1;jettySize=auto;html=1;endArrow=none;endFill=0;entryX=0.1;entryY=-0.007;entryDx=0;entryDy=0;entryPerimeter=0;" parent="1" source="Xl_F5yLaofZVcRbHejWL-60" target="Xl_F5yLaofZVcRbHejWL-58" edge="1">
          <mxGeometry relative="1" as="geometry">
            <mxPoint x="-365" y="319" as="targetPoint" />
            <Array as="points">
              <mxPoint x="-365" y="290" />
            </Array>
          </mxGeometry>
        </mxCell>
        <mxCell id="Xl_F5yLaofZVcRbHejWL-60" value="dia" style="ellipse;whiteSpace=wrap;html=1;align=center;" parent="1" vertex="1">
          <mxGeometry x="-430" y="270" width="45" height="40" as="geometry" />
        </mxCell>
        <mxCell id="6sIepBBf1dvNzspZAciI-140" value="" style="edgeStyle=orthogonalEdgeStyle;rounded=0;orthogonalLoop=1;jettySize=auto;html=1;endArrow=none;endFill=0;exitX=0.75;exitY=0;exitDx=0;exitDy=0;entryX=0;entryY=0.5;entryDx=0;entryDy=0;" parent="1" source="Xl_F5yLaofZVcRbHejWL-58" target="Xl_F5yLaofZVcRbHejWL-59" edge="1">
          <mxGeometry relative="1" as="geometry">
            <mxPoint x="-300" y="310" as="sourcePoint" />
            <Array as="points">
              <mxPoint x="-300" y="310" />
            </Array>
          </mxGeometry>
        </mxCell>
        <mxCell id="Xl_F5yLaofZVcRbHejWL-61" value="hora" style="ellipse;whiteSpace=wrap;html=1;align=center;" parent="1" vertex="1">
          <mxGeometry x="-400" y="210" width="55" height="40" as="geometry" />
        </mxCell>
        <mxCell id="6sIepBBf1dvNzspZAciI-56" value="" style="edgeStyle=orthogonalEdgeStyle;rounded=0;orthogonalLoop=1;jettySize=auto;html=1;endArrow=none;endFill=0;" parent="1" source="Xl_F5yLaofZVcRbHejWL-63" target="Xl_F5yLaofZVcRbHejWL-58" edge="1">
          <mxGeometry relative="1" as="geometry" />
        </mxCell>
        <mxCell id="Xl_F5yLaofZVcRbHejWL-63" value="id" style="ellipse;whiteSpace=wrap;html=1;align=center;fontStyle=4;" parent="1" vertex="1">
          <mxGeometry x="-460" y="320" width="50" height="40" as="geometry" />
        </mxCell>
        <mxCell id="Xl_F5yLaofZVcRbHejWL-64" value="nombre" style="ellipse;whiteSpace=wrap;html=1;align=center;fontStyle=4;" parent="1" vertex="1">
          <mxGeometry x="10" y="290" width="60" height="40" as="geometry" />
        </mxCell>
        <mxCell id="6sIepBBf1dvNzspZAciI-64" style="edgeStyle=orthogonalEdgeStyle;rounded=0;orthogonalLoop=1;jettySize=auto;html=1;entryX=1;entryY=0.5;entryDx=0;entryDy=0;endArrow=none;endFill=0;" parent="1" source="Xl_F5yLaofZVcRbHejWL-66" target="Xl_F5yLaofZVcRbHejWL-1" edge="1">
          <mxGeometry relative="1" as="geometry">
            <Array as="points">
              <mxPoint x="250" y="570" />
            </Array>
          </mxGeometry>
        </mxCell>
        <mxCell id="Xl_F5yLaofZVcRbHejWL-66" value="organismo_responsable" style="ellipse;whiteSpace=wrap;html=1;align=center;" parent="1" vertex="1">
          <mxGeometry x="190" y="590" width="140" height="40" as="geometry" />
        </mxCell>
        <mxCell id="6sIepBBf1dvNzspZAciI-7" style="edgeStyle=orthogonalEdgeStyle;rounded=0;orthogonalLoop=1;jettySize=auto;html=1;exitX=0.5;exitY=0;exitDx=0;exitDy=0;endArrow=none;endFill=0;" parent="1" source="Xl_F5yLaofZVcRbHejWL-11" target="Xl_F5yLaofZVcRbHejWL-5" edge="1">
          <mxGeometry relative="1" as="geometry">
            <mxPoint x="180.02999999998704" y="340.0000000000001" as="sourcePoint" />
            <mxPoint x="120" y="320" as="targetPoint" />
            <Array as="points">
              <mxPoint x="85" y="340" />
            </Array>
          </mxGeometry>
        </mxCell>
        <mxCell id="6sIepBBf1dvNzspZAciI-13" style="edgeStyle=orthogonalEdgeStyle;rounded=0;orthogonalLoop=1;jettySize=auto;html=1;entryX=0;entryY=1;entryDx=0;entryDy=0;endArrow=none;endFill=0;exitX=1;exitY=0.5;exitDx=0;exitDy=0;" parent="1" source="Xl_F5yLaofZVcRbHejWL-14" edge="1">
          <mxGeometry relative="1" as="geometry">
            <mxPoint x="510" y="820" as="sourcePoint" />
            <mxPoint x="580" y="760" as="targetPoint" />
            <Array as="points">
              <mxPoint x="580" y="820" />
            </Array>
          </mxGeometry>
        </mxCell>
        <mxCell id="6sIepBBf1dvNzspZAciI-14" style="edgeStyle=orthogonalEdgeStyle;rounded=0;orthogonalLoop=1;jettySize=auto;html=1;endArrow=none;endFill=0;" parent="1" source="Xl_F5yLaofZVcRbHejWL-15" edge="1">
          <mxGeometry relative="1" as="geometry">
            <mxPoint x="585" y="760" as="targetPoint" />
            <Array as="points">
              <mxPoint x="625" y="760" />
            </Array>
          </mxGeometry>
        </mxCell>
        <mxCell id="6sIepBBf1dvNzspZAciI-15" style="edgeStyle=orthogonalEdgeStyle;rounded=0;orthogonalLoop=1;jettySize=auto;html=1;endArrow=none;endFill=0;exitX=1;exitY=0.5;exitDx=0;exitDy=0;" parent="1" source="Xl_F5yLaofZVcRbHejWL-16" edge="1">
          <mxGeometry relative="1" as="geometry">
            <mxPoint x="565" y="870" as="sourcePoint" />
            <mxPoint x="585" y="760" as="targetPoint" />
            <Array as="points">
              <mxPoint x="595" y="870" />
              <mxPoint x="595" y="760" />
            </Array>
          </mxGeometry>
        </mxCell>
        <mxCell id="6sIepBBf1dvNzspZAciI-19" style="edgeStyle=orthogonalEdgeStyle;rounded=0;orthogonalLoop=1;jettySize=auto;html=1;endArrow=none;endFill=0;" parent="1" source="6sIepBBf1dvNzspZAciI-17" edge="1">
          <mxGeometry relative="1" as="geometry">
            <mxPoint x="625" y="720" as="targetPoint" />
            <Array as="points">
              <mxPoint x="625" y="720" />
            </Array>
          </mxGeometry>
        </mxCell>
        <mxCell id="6sIepBBf1dvNzspZAciI-20" style="edgeStyle=orthogonalEdgeStyle;rounded=0;orthogonalLoop=1;jettySize=auto;html=1;entryX=0.5;entryY=0;entryDx=0;entryDy=0;endArrow=none;endFill=0;" parent="1" source="6sIepBBf1dvNzspZAciI-17" target="Xl_F5yLaofZVcRbHejWL-6" edge="1">
          <mxGeometry relative="1" as="geometry" />
        </mxCell>
        <mxCell id="6sIepBBf1dvNzspZAciI-17" value="" style="triangle;whiteSpace=wrap;html=1;rotation=90;" parent="1" vertex="1">
          <mxGeometry x="615" y="680" width="20" height="30" as="geometry" />
        </mxCell>
        <mxCell id="6sIepBBf1dvNzspZAciI-18" style="edgeStyle=orthogonalEdgeStyle;rounded=0;orthogonalLoop=1;jettySize=auto;html=1;entryX=0.582;entryY=0.001;entryDx=0;entryDy=0;entryPerimeter=0;endArrow=none;endFill=0;" parent="1" source="6sIepBBf1dvNzspZAciI-17" target="Xl_F5yLaofZVcRbHejWL-2" edge="1">
          <mxGeometry relative="1" as="geometry" />
        </mxCell>
        <mxCell id="6sIepBBf1dvNzspZAciI-22" value="id" style="ellipse;whiteSpace=wrap;html=1;align=center;fontStyle=4;" parent="1" vertex="1">
          <mxGeometry x="-100" y="270" width="50" height="40" as="geometry" />
        </mxCell>
        <mxCell id="6sIepBBf1dvNzspZAciI-36" style="edgeStyle=orthogonalEdgeStyle;rounded=0;orthogonalLoop=1;jettySize=auto;html=1;entryX=0.804;entryY=-0.012;entryDx=0;entryDy=0;endArrow=none;endFill=0;entryPerimeter=0;" parent="1" source="Xl_F5yLaofZVcRbHejWL-49" target="Xl_F5yLaofZVcRbHejWL-34" edge="1">
          <mxGeometry relative="1" as="geometry">
            <Array as="points">
              <mxPoint x="933" y="190" />
            </Array>
          </mxGeometry>
        </mxCell>
        <mxCell id="6sIepBBf1dvNzspZAciI-38" style="edgeStyle=orthogonalEdgeStyle;rounded=0;orthogonalLoop=1;jettySize=auto;html=1;exitX=1;exitY=0.5;exitDx=0;exitDy=0;endArrow=none;endFill=0;entryX=0;entryY=0.25;entryDx=0;entryDy=0;" parent="1" source="Xl_F5yLaofZVcRbHejWL-29" target="Xl_F5yLaofZVcRbHejWL-26" edge="1">
          <mxGeometry relative="1" as="geometry">
            <mxPoint x="630" y="90" as="targetPoint" />
            <Array as="points">
              <mxPoint x="610" y="40" />
              <mxPoint x="610" y="100" />
            </Array>
          </mxGeometry>
        </mxCell>
        <mxCell id="6sIepBBf1dvNzspZAciI-39" style="edgeStyle=orthogonalEdgeStyle;rounded=0;orthogonalLoop=1;jettySize=auto;html=1;entryX=0.304;entryY=-0.003;entryDx=0;entryDy=0;entryPerimeter=0;endArrow=none;endFill=0;" parent="1" source="Xl_F5yLaofZVcRbHejWL-28" target="Xl_F5yLaofZVcRbHejWL-26" edge="1">
          <mxGeometry relative="1" as="geometry">
            <Array as="points">
              <mxPoint x="650" y="90" />
            </Array>
          </mxGeometry>
        </mxCell>
        <mxCell id="6sIepBBf1dvNzspZAciI-40" style="edgeStyle=orthogonalEdgeStyle;rounded=0;orthogonalLoop=1;jettySize=auto;html=1;entryX=0.653;entryY=-0.016;entryDx=0;entryDy=0;entryPerimeter=0;endArrow=none;endFill=0;" parent="1" source="Xl_F5yLaofZVcRbHejWL-27" target="Xl_F5yLaofZVcRbHejWL-26" edge="1">
          <mxGeometry relative="1" as="geometry">
            <Array as="points">
              <mxPoint x="770" y="50" />
              <mxPoint x="685" y="50" />
            </Array>
          </mxGeometry>
        </mxCell>
        <mxCell id="6sIepBBf1dvNzspZAciI-42" style="edgeStyle=orthogonalEdgeStyle;rounded=0;orthogonalLoop=1;jettySize=auto;html=1;entryX=0.82;entryY=0.017;entryDx=0;entryDy=0;entryPerimeter=0;endArrow=none;endFill=0;" parent="1" source="Xl_F5yLaofZVcRbHejWL-31" target="Xl_F5yLaofZVcRbHejWL-26" edge="1">
          <mxGeometry relative="1" as="geometry">
            <Array as="points">
              <mxPoint x="702" y="80" />
            </Array>
          </mxGeometry>
        </mxCell>
        <mxCell id="6sIepBBf1dvNzspZAciI-45" style="edgeStyle=orthogonalEdgeStyle;rounded=0;orthogonalLoop=1;jettySize=auto;html=1;entryX=0.5;entryY=0;entryDx=0;entryDy=0;endArrow=none;endFill=0;" parent="1" target="Xl_F5yLaofZVcRbHejWL-36" edge="1">
          <mxGeometry relative="1" as="geometry">
            <mxPoint x="658.6024310276159" y="159.20487520624837" as="sourcePoint" />
          </mxGeometry>
        </mxCell>
        <mxCell id="6sIepBBf1dvNzspZAciI-46" style="edgeStyle=orthogonalEdgeStyle;rounded=0;orthogonalLoop=1;jettySize=auto;html=1;entryX=0.5;entryY=0;entryDx=0;entryDy=0;endArrow=none;endFill=0;" parent="1" target="Xl_F5yLaofZVcRbHejWL-35" edge="1">
          <mxGeometry relative="1" as="geometry">
            <mxPoint x="658.602316663746" y="159.2046682843537" as="sourcePoint" />
          </mxGeometry>
        </mxCell>
        <mxCell id="6sIepBBf1dvNzspZAciI-92" style="edgeStyle=orthogonalEdgeStyle;rounded=0;orthogonalLoop=1;jettySize=auto;html=1;entryX=0.5;entryY=0;entryDx=0;entryDy=0;endArrow=none;endFill=0;" parent="1" target="Xl_F5yLaofZVcRbHejWL-25" edge="1">
          <mxGeometry relative="1" as="geometry">
            <mxPoint x="740" y="190" as="targetPoint" />
            <mxPoint x="673.2877127729053" y="159.20461502375923" as="sourcePoint" />
            <Array as="points">
              <mxPoint x="740" y="160" />
            </Array>
          </mxGeometry>
        </mxCell>
        <mxCell id="6sIepBBf1dvNzspZAciI-54" style="edgeStyle=orthogonalEdgeStyle;rounded=0;orthogonalLoop=1;jettySize=auto;html=1;entryX=0.599;entryY=0;entryDx=0;entryDy=0;entryPerimeter=0;endArrow=none;endFill=0;" parent="1" source="Xl_F5yLaofZVcRbHejWL-61" target="Xl_F5yLaofZVcRbHejWL-58" edge="1">
          <mxGeometry relative="1" as="geometry">
            <Array as="points">
              <mxPoint x="-373" y="270" />
              <mxPoint x="-350" y="270" />
              <mxPoint x="-350" y="320" />
            </Array>
          </mxGeometry>
        </mxCell>
        <mxCell id="6sIepBBf1dvNzspZAciI-135" style="edgeStyle=orthogonalEdgeStyle;rounded=0;orthogonalLoop=1;jettySize=auto;html=1;entryX=0.5;entryY=1;entryDx=0;entryDy=0;endArrow=none;endFill=0;" parent="1" source="6sIepBBf1dvNzspZAciI-57" target="6sIepBBf1dvNzspZAciI-81" edge="1">
          <mxGeometry relative="1" as="geometry" />
        </mxCell>
        <mxCell id="6sIepBBf1dvNzspZAciI-57" value="tiene" style="shape=rhombus;perimeter=rhombusPerimeter;whiteSpace=wrap;html=1;align=center;" parent="1" vertex="1">
          <mxGeometry x="177.5" y="200" width="85" height="40" as="geometry" />
        </mxCell>
        <mxCell id="6sIepBBf1dvNzspZAciI-58" value="controla" style="shape=rhombus;perimeter=rhombusPerimeter;whiteSpace=wrap;html=1;align=center;" parent="1" vertex="1">
          <mxGeometry x="300" y="100" width="90" height="40" as="geometry" />
        </mxCell>
        <mxCell id="6sIepBBf1dvNzspZAciI-79" style="edgeStyle=orthogonalEdgeStyle;rounded=0;orthogonalLoop=1;jettySize=auto;html=1;endArrow=none;endFill=0;entryX=0.691;entryY=0.989;entryDx=0;entryDy=0;entryPerimeter=0;" parent="1" source="6sIepBBf1dvNzspZAciI-59" target="Xl_F5yLaofZVcRbHejWL-3" edge="1">
          <mxGeometry relative="1" as="geometry">
            <mxPoint x="645" y="770" as="targetPoint" />
            <Array as="points">
              <mxPoint x="644" y="820" />
            </Array>
          </mxGeometry>
        </mxCell>
        <mxCell id="6sIepBBf1dvNzspZAciI-59" value="alimenta" style="shape=rhombus;perimeter=rhombusPerimeter;whiteSpace=wrap;html=1;align=center;" parent="1" vertex="1">
          <mxGeometry x="665" y="800" width="80" height="40" as="geometry" />
        </mxCell>
        <mxCell id="6sIepBBf1dvNzspZAciI-77" value="" style="edgeStyle=orthogonalEdgeStyle;rounded=0;orthogonalLoop=1;jettySize=auto;html=1;endArrow=none;endFill=0;" parent="1" source="6sIepBBf1dvNzspZAciI-60" target="Xl_F5yLaofZVcRbHejWL-2" edge="1">
          <mxGeometry relative="1" as="geometry" />
        </mxCell>
        <mxCell id="6sIepBBf1dvNzspZAciI-60" value="alimenta" style="shape=rhombus;perimeter=rhombusPerimeter;whiteSpace=wrap;html=1;align=center;" parent="1" vertex="1">
          <mxGeometry x="435" y="715" width="85" height="50" as="geometry" />
        </mxCell>
        <mxCell id="6sIepBBf1dvNzspZAciI-72" style="edgeStyle=orthogonalEdgeStyle;rounded=0;orthogonalLoop=1;jettySize=auto;html=1;endArrow=none;endFill=0;" parent="1" source="6sIepBBf1dvNzspZAciI-61" target="Xl_F5yLaofZVcRbHejWL-4" edge="1">
          <mxGeometry relative="1" as="geometry" />
        </mxCell>
        <mxCell id="6sIepBBf1dvNzspZAciI-61" value="reside" style="shape=rhombus;perimeter=rhombusPerimeter;whiteSpace=wrap;html=1;align=center;" parent="1" vertex="1">
          <mxGeometry x="392.5" y="560" width="85" height="40" as="geometry" />
        </mxCell>
        <mxCell id="6sIepBBf1dvNzspZAciI-62" value="contiene" style="shape=rhombus;perimeter=rhombusPerimeter;whiteSpace=wrap;html=1;align=center;" parent="1" vertex="1">
          <mxGeometry x="360" y="348" width="70" height="40" as="geometry" />
        </mxCell>
        <mxCell id="6sIepBBf1dvNzspZAciI-63" value="tiene" style="shape=rhombus;perimeter=rhombusPerimeter;whiteSpace=wrap;html=1;align=center;" parent="1" vertex="1">
          <mxGeometry x="105" y="420" width="70" height="30" as="geometry" />
        </mxCell>
        <mxCell id="6sIepBBf1dvNzspZAciI-66" style="edgeStyle=orthogonalEdgeStyle;rounded=0;orthogonalLoop=1;jettySize=auto;html=1;endArrow=none;endFill=0;entryX=0.106;entryY=1;entryDx=0;entryDy=0;entryPerimeter=0;" parent="1" source="6sIepBBf1dvNzspZAciI-63" target="Xl_F5yLaofZVcRbHejWL-5" edge="1">
          <mxGeometry relative="1" as="geometry">
            <mxPoint x="100" y="300" as="targetPoint" />
            <Array as="points">
              <mxPoint x="140" y="350" />
            </Array>
          </mxGeometry>
        </mxCell>
        <mxCell id="6sIepBBf1dvNzspZAciI-69" style="edgeStyle=orthogonalEdgeStyle;rounded=0;orthogonalLoop=1;jettySize=auto;html=1;endArrow=none;endFill=0;exitX=1;exitY=0.5;exitDx=0;exitDy=0;" parent="1" source="Xl_F5yLaofZVcRbHejWL-64" edge="1">
          <mxGeometry relative="1" as="geometry">
            <mxPoint x="120" y="307" as="targetPoint" />
            <Array as="points">
              <mxPoint x="120" y="310" />
            </Array>
          </mxGeometry>
        </mxCell>
        <mxCell id="6sIepBBf1dvNzspZAciI-75" style="edgeStyle=orthogonalEdgeStyle;rounded=0;orthogonalLoop=1;jettySize=auto;html=1;entryX=1;entryY=0.5;entryDx=0;entryDy=0;endArrow=none;endFill=0;" parent="1" source="6sIepBBf1dvNzspZAciI-74" target="Xl_F5yLaofZVcRbHejWL-4" edge="1">
          <mxGeometry relative="1" as="geometry">
            <Array as="points">
              <mxPoint x="700" y="665" />
              <mxPoint x="700" y="650" />
              <mxPoint x="675" y="650" />
            </Array>
          </mxGeometry>
        </mxCell>
        <mxCell id="6sIepBBf1dvNzspZAciI-74" value="denom_vulgar" style="ellipse;whiteSpace=wrap;html=1;align=center;" parent="1" vertex="1">
          <mxGeometry x="725" y="645" width="100" height="40" as="geometry" />
        </mxCell>
        <mxCell id="6sIepBBf1dvNzspZAciI-81" value="ENTRADA" style="shape=ext;margin=3;double=1;whiteSpace=wrap;html=1;align=center;" parent="1" vertex="1">
          <mxGeometry x="180" y="100" width="80" height="40" as="geometry" />
        </mxCell>
        <mxCell id="6sIepBBf1dvNzspZAciI-82" value="numero" style="ellipse;whiteSpace=wrap;html=1;align=center;fontStyle=4;" parent="1" vertex="1">
          <mxGeometry x="245" y="30" width="65" height="40" as="geometry" />
        </mxCell>
        <mxCell id="6sIepBBf1dvNzspZAciI-88" value="realiza" style="shape=rhombus;perimeter=rhombusPerimeter;whiteSpace=wrap;html=1;align=center;" parent="1" vertex="1">
          <mxGeometry x="820" y="290" width="90" height="40" as="geometry" />
        </mxCell>
        <mxCell id="6sIepBBf1dvNzspZAciI-141" style="edgeStyle=orthogonalEdgeStyle;rounded=0;orthogonalLoop=1;jettySize=auto;html=1;entryX=0.5;entryY=1;entryDx=0;entryDy=0;endArrow=none;endFill=0;exitX=0;exitY=0.5;exitDx=0;exitDy=0;" parent="1" source="6sIepBBf1dvNzspZAciI-94" target="Xl_F5yLaofZVcRbHejWL-7" edge="1">
          <mxGeometry relative="1" as="geometry">
            <Array as="points">
              <mxPoint x="395" y="500" />
            </Array>
          </mxGeometry>
        </mxCell>
        <mxCell id="6sIepBBf1dvNzspZAciI-94" value="controla" style="shape=rhombus;perimeter=rhombusPerimeter;whiteSpace=wrap;html=1;align=center;" parent="1" vertex="1">
          <mxGeometry x="480" y="480" width="90" height="40" as="geometry" />
        </mxCell>
        <mxCell id="6sIepBBf1dvNzspZAciI-154" style="edgeStyle=orthogonalEdgeStyle;rounded=0;orthogonalLoop=1;jettySize=auto;html=1;entryX=0.5;entryY=0;entryDx=0;entryDy=0;endArrow=none;endFill=0;" parent="1" source="6sIepBBf1dvNzspZAciI-97" target="Xl_F5yLaofZVcRbHejWL-55" edge="1">
          <mxGeometry relative="1" as="geometry" />
        </mxCell>
        <mxCell id="6sIepBBf1dvNzspZAciI-97" value="aloja" style="shape=rhombus;perimeter=rhombusPerimeter;whiteSpace=wrap;html=1;align=center;" parent="1" vertex="1">
          <mxGeometry x="-200" y="210" width="85" height="40" as="geometry" />
        </mxCell>
        <mxCell id="6sIepBBf1dvNzspZAciI-101" style="edgeStyle=orthogonalEdgeStyle;rounded=0;orthogonalLoop=1;jettySize=auto;html=1;endArrow=none;endFill=0;entryX=0.5;entryY=1;entryDx=0;entryDy=0;" parent="1" source="6sIepBBf1dvNzspZAciI-97" target="Xl_F5yLaofZVcRbHejWL-39" edge="1">
          <mxGeometry relative="1" as="geometry">
            <mxPoint x="-140" y="100" as="targetPoint" />
            <Array as="points">
              <mxPoint x="-160" y="150" />
              <mxPoint x="-90" y="150" />
            </Array>
          </mxGeometry>
        </mxCell>
        <mxCell id="6sIepBBf1dvNzspZAciI-138" style="edgeStyle=orthogonalEdgeStyle;rounded=0;orthogonalLoop=1;jettySize=auto;html=1;entryX=0.25;entryY=0;entryDx=0;entryDy=0;endArrow=none;endFill=0;" parent="1" source="6sIepBBf1dvNzspZAciI-113" target="Xl_F5yLaofZVcRbHejWL-5" edge="1">
          <mxGeometry relative="1" as="geometry" />
        </mxCell>
        <mxCell id="6sIepBBf1dvNzspZAciI-113" value="dispone" style="shape=rhombus;perimeter=rhombusPerimeter;whiteSpace=wrap;html=1;align=center;" parent="1" vertex="1">
          <mxGeometry x="25" y="170" width="85" height="40" as="geometry" />
        </mxCell>
        <mxCell id="6sIepBBf1dvNzspZAciI-117" style="edgeStyle=orthogonalEdgeStyle;rounded=0;orthogonalLoop=1;jettySize=auto;html=1;entryX=0.25;entryY=0;entryDx=0;entryDy=0;endArrow=none;endFill=0;" parent="1" source="6sIepBBf1dvNzspZAciI-82" target="6sIepBBf1dvNzspZAciI-81" edge="1">
          <mxGeometry relative="1" as="geometry">
            <mxPoint x="520" y="390" as="targetPoint" />
            <Array as="points">
              <mxPoint x="200" y="50" />
            </Array>
          </mxGeometry>
        </mxCell>
        <mxCell id="6sIepBBf1dvNzspZAciI-120" style="edgeStyle=orthogonalEdgeStyle;rounded=0;orthogonalLoop=1;jettySize=auto;html=1;entryX=1;entryY=0.5;entryDx=0;entryDy=0;endArrow=none;endFill=0;exitX=0;exitY=0.5;exitDx=0;exitDy=0;" parent="1" source="6sIepBBf1dvNzspZAciI-58" target="6sIepBBf1dvNzspZAciI-81" edge="1">
          <mxGeometry relative="1" as="geometry">
            <Array as="points">
              <mxPoint x="290" y="120" />
              <mxPoint x="290" y="120" />
            </Array>
          </mxGeometry>
        </mxCell>
        <mxCell id="6sIepBBf1dvNzspZAciI-122" style="edgeStyle=orthogonalEdgeStyle;rounded=0;orthogonalLoop=1;jettySize=auto;html=1;entryX=0.5;entryY=1;entryDx=0;entryDy=0;endArrow=none;endFill=0;" parent="1" source="6sIepBBf1dvNzspZAciI-121" target="Xl_F5yLaofZVcRbHejWL-58" edge="1">
          <mxGeometry relative="1" as="geometry">
            <mxPoint x="-270" y="380" as="targetPoint" />
            <Array as="points">
              <mxPoint x="-325" y="480" />
            </Array>
          </mxGeometry>
        </mxCell>
        <mxCell id="6sIepBBf1dvNzspZAciI-123" style="edgeStyle=orthogonalEdgeStyle;rounded=0;orthogonalLoop=1;jettySize=auto;html=1;endArrow=none;endFill=0;" parent="1" source="6sIepBBf1dvNzspZAciI-121" edge="1">
          <mxGeometry relative="1" as="geometry">
            <mxPoint x="-118" y="370" as="targetPoint" />
            <Array as="points">
              <mxPoint x="-118" y="370" />
            </Array>
          </mxGeometry>
        </mxCell>
        <mxCell id="6sIepBBf1dvNzspZAciI-121" value="organiza" style="shape=rhombus;perimeter=rhombusPerimeter;whiteSpace=wrap;html=1;align=center;" parent="1" vertex="1">
          <mxGeometry x="-160" y="460" width="85" height="40" as="geometry" />
        </mxCell>
        <mxCell id="6sIepBBf1dvNzspZAciI-126" style="edgeStyle=orthogonalEdgeStyle;rounded=0;orthogonalLoop=1;jettySize=auto;html=1;exitX=0.5;exitY=1;exitDx=0;exitDy=0;endArrow=none;endFill=0;" parent="1" source="6sIepBBf1dvNzspZAciI-124" edge="1">
          <mxGeometry relative="1" as="geometry">
            <mxPoint x="-320" y="320" as="targetPoint" />
            <Array as="points">
              <mxPoint x="-297" y="130" />
              <mxPoint x="-320" y="130" />
              <mxPoint x="-320" y="320" />
            </Array>
          </mxGeometry>
        </mxCell>
        <mxCell id="6sIepBBf1dvNzspZAciI-124" value="acude" style="shape=rhombus;perimeter=rhombusPerimeter;whiteSpace=wrap;html=1;align=center;" parent="1" vertex="1">
          <mxGeometry x="-340" y="80" width="85" height="40" as="geometry" />
        </mxCell>
        <mxCell id="6sIepBBf1dvNzspZAciI-214" style="edgeStyle=orthogonalEdgeStyle;rounded=0;orthogonalLoop=1;jettySize=auto;html=1;exitX=0;exitY=0.5;exitDx=0;exitDy=0;entryX=1;entryY=0.75;entryDx=0;entryDy=0;endArrow=none;endFill=0;" parent="1" source="6sIepBBf1dvNzspZAciI-129" target="Xl_F5yLaofZVcRbHejWL-7" edge="1">
          <mxGeometry relative="1" as="geometry">
            <Array as="points">
              <mxPoint x="445" y="465" />
            </Array>
          </mxGeometry>
        </mxCell>
        <mxCell id="6sIepBBf1dvNzspZAciI-129" value="vigila" style="shape=rhombus;perimeter=rhombusPerimeter;whiteSpace=wrap;html=1;align=center;" parent="1" vertex="1">
          <mxGeometry x="607.5" y="445" width="90" height="40" as="geometry" />
        </mxCell>
        <mxCell id="6sIepBBf1dvNzspZAciI-149" style="edgeStyle=orthogonalEdgeStyle;rounded=0;orthogonalLoop=1;jettySize=auto;html=1;entryX=0.098;entryY=1.004;entryDx=0;entryDy=0;entryPerimeter=0;endArrow=none;endFill=0;" parent="1" source="Xl_F5yLaofZVcRbHejWL-17" target="Xl_F5yLaofZVcRbHejWL-2" edge="1">
          <mxGeometry relative="1" as="geometry" />
        </mxCell>
        <mxCell id="6sIepBBf1dvNzspZAciI-151" style="edgeStyle=orthogonalEdgeStyle;rounded=0;orthogonalLoop=1;jettySize=auto;html=1;entryX=0.925;entryY=-0.033;entryDx=0;entryDy=0;entryPerimeter=0;endArrow=none;endFill=0;" parent="1" source="6sIepBBf1dvNzspZAciI-22" target="Xl_F5yLaofZVcRbHejWL-55" edge="1">
          <mxGeometry relative="1" as="geometry" />
        </mxCell>
        <mxCell id="6sIepBBf1dvNzspZAciI-158" style="edgeStyle=orthogonalEdgeStyle;rounded=0;orthogonalLoop=1;jettySize=auto;html=1;entryX=0.428;entryY=0;entryDx=0;entryDy=0;entryPerimeter=0;endArrow=none;endFill=0;" parent="1" source="Xl_F5yLaofZVcRbHejWL-53" target="Xl_F5yLaofZVcRbHejWL-39" edge="1">
          <mxGeometry relative="1" as="geometry" />
        </mxCell>
        <mxCell id="6sIepBBf1dvNzspZAciI-161" style="edgeStyle=orthogonalEdgeStyle;rounded=0;orthogonalLoop=1;jettySize=auto;html=1;entryX=0;entryY=0.5;entryDx=0;entryDy=0;endArrow=none;endFill=0;" parent="1" source="6sIepBBf1dvNzspZAciI-159" target="6sIepBBf1dvNzspZAciI-81" edge="1">
          <mxGeometry relative="1" as="geometry">
            <Array as="points">
              <mxPoint x="180" y="110" />
            </Array>
          </mxGeometry>
        </mxCell>
        <mxCell id="6sIepBBf1dvNzspZAciI-159" value="entra" style="shape=rhombus;perimeter=rhombusPerimeter;whiteSpace=wrap;html=1;align=center;" parent="1" vertex="1">
          <mxGeometry x="30" y="90" width="85" height="40" as="geometry" />
        </mxCell>
        <mxCell id="6sIepBBf1dvNzspZAciI-165" style="edgeStyle=orthogonalEdgeStyle;rounded=0;orthogonalLoop=1;jettySize=auto;html=1;endArrow=none;endFill=0;entryX=0.494;entryY=-0.004;entryDx=0;entryDy=0;entryPerimeter=0;" parent="1" source="6sIepBBf1dvNzspZAciI-164" target="6sIepBBf1dvNzspZAciI-159" edge="1">
          <mxGeometry relative="1" as="geometry">
            <mxPoint x="70" y="90" as="targetPoint" />
            <Array as="points">
              <mxPoint x="72" y="80" />
              <mxPoint x="72" y="80" />
            </Array>
          </mxGeometry>
        </mxCell>
        <mxCell id="6sIepBBf1dvNzspZAciI-164" value="fecha" style="ellipse;whiteSpace=wrap;html=1;align=center;" parent="1" vertex="1">
          <mxGeometry x="47.5" y="30" width="52.5" height="40" as="geometry" />
        </mxCell>
        <mxCell id="6sIepBBf1dvNzspZAciI-166" style="edgeStyle=orthogonalEdgeStyle;rounded=0;orthogonalLoop=1;jettySize=auto;html=1;entryX=0.546;entryY=0.031;entryDx=0;entryDy=0;entryPerimeter=0;endArrow=none;endFill=0;" parent="1" source="6sIepBBf1dvNzspZAciI-88" target="Xl_F5yLaofZVcRbHejWL-40" edge="1">
          <mxGeometry relative="1" as="geometry" />
        </mxCell>
        <mxCell id="6sIepBBf1dvNzspZAciI-172" style="edgeStyle=orthogonalEdgeStyle;rounded=0;orthogonalLoop=1;jettySize=auto;html=1;endArrow=none;endFill=0;" parent="1" source="6sIepBBf1dvNzspZAciI-171" target="Xl_F5yLaofZVcRbHejWL-1" edge="1">
          <mxGeometry relative="1" as="geometry" />
        </mxCell>
        <mxCell id="6sIepBBf1dvNzspZAciI-171" value="nombre" style="ellipse;whiteSpace=wrap;html=1;align=center;fontStyle=4;" parent="1" vertex="1">
          <mxGeometry x="10" y="550" width="65" height="40" as="geometry" />
        </mxCell>
        <mxCell id="6sIepBBf1dvNzspZAciI-173" value="(1,n)" style="text;html=1;align=center;verticalAlign=middle;resizable=0;points=[];autosize=1;strokeColor=none;fillColor=none;" parent="1" vertex="1">
          <mxGeometry x="135" y="348" width="50" height="30" as="geometry" />
        </mxCell>
        <mxCell id="6sIepBBf1dvNzspZAciI-174" value="&lt;span style=&quot;color: rgb(0, 0, 0); font-family: Helvetica; font-size: 12px; font-style: normal; font-variant-ligatures: normal; font-variant-caps: normal; font-weight: 400; letter-spacing: normal; orphans: 2; text-align: center; text-indent: 0px; text-transform: none; widows: 2; word-spacing: 0px; -webkit-text-stroke-width: 0px; background-color: rgb(251, 251, 251); text-decoration-thickness: initial; text-decoration-style: initial; text-decoration-color: initial; float: none; display: inline !important;&quot;&gt;(1,n)&lt;/span&gt;" style="text;whiteSpace=wrap;html=1;" parent="1" vertex="1">
          <mxGeometry x="150" y="520" width="40" height="30" as="geometry" />
        </mxCell>
        <mxCell id="6sIepBBf1dvNzspZAciI-176" value="N:M" style="text;html=1;align=center;verticalAlign=middle;resizable=0;points=[];autosize=1;strokeColor=none;fillColor=none;" parent="1" vertex="1">
          <mxGeometry x="60" y="420" width="50" height="30" as="geometry" />
        </mxCell>
        <mxCell id="6sIepBBf1dvNzspZAciI-177" value="(1,n)" style="text;html=1;align=center;verticalAlign=middle;resizable=0;points=[];autosize=1;strokeColor=none;fillColor=none;" parent="1" vertex="1">
          <mxGeometry x="350" y="415" width="50" height="30" as="geometry" />
        </mxCell>
        <mxCell id="6sIepBBf1dvNzspZAciI-178" value="(1,1)" style="text;html=1;align=center;verticalAlign=middle;resizable=0;points=[];autosize=1;strokeColor=none;fillColor=none;" parent="1" vertex="1">
          <mxGeometry x="270" y="295" width="50" height="30" as="geometry" />
        </mxCell>
        <mxCell id="6sIepBBf1dvNzspZAciI-179" value="1:N" style="text;html=1;align=center;verticalAlign=middle;resizable=0;points=[];autosize=1;strokeColor=none;fillColor=none;" parent="1" vertex="1">
          <mxGeometry x="320" y="350" width="40" height="30" as="geometry" />
        </mxCell>
        <mxCell id="6sIepBBf1dvNzspZAciI-180" value="extension_total" style="ellipse;whiteSpace=wrap;html=1;align=center;" parent="1" vertex="1">
          <mxGeometry x="-5" y="470" width="90" height="40" as="geometry" />
        </mxCell>
        <mxCell id="6sIepBBf1dvNzspZAciI-181" style="edgeStyle=orthogonalEdgeStyle;rounded=0;orthogonalLoop=1;jettySize=auto;html=1;entryX=0;entryY=1;entryDx=0;entryDy=0;endArrow=none;endFill=0;" parent="1" source="6sIepBBf1dvNzspZAciI-180" target="6sIepBBf1dvNzspZAciI-63" edge="1">
          <mxGeometry relative="1" as="geometry" />
        </mxCell>
        <mxCell id="6sIepBBf1dvNzspZAciI-182" value="(0,n)" style="text;html=1;align=center;verticalAlign=middle;resizable=0;points=[];autosize=1;strokeColor=none;fillColor=none;" parent="1" vertex="1">
          <mxGeometry x="570" y="590" width="50" height="30" as="geometry" />
        </mxCell>
        <mxCell id="6sIepBBf1dvNzspZAciI-183" value="(0,n)" style="text;html=1;align=center;verticalAlign=middle;resizable=0;points=[];autosize=1;strokeColor=none;fillColor=none;" parent="1" vertex="1">
          <mxGeometry x="345" y="480" width="50" height="30" as="geometry" />
        </mxCell>
        <mxCell id="6sIepBBf1dvNzspZAciI-184" value="N:M" style="text;html=1;align=center;verticalAlign=middle;resizable=0;points=[];autosize=1;strokeColor=none;fillColor=none;" parent="1" vertex="1">
          <mxGeometry x="410" y="530" width="50" height="30" as="geometry" />
        </mxCell>
        <mxCell id="6sIepBBf1dvNzspZAciI-186" style="edgeStyle=orthogonalEdgeStyle;rounded=0;orthogonalLoop=1;jettySize=auto;html=1;endArrow=none;endFill=0;" parent="1" edge="1">
          <mxGeometry relative="1" as="geometry">
            <mxPoint x="639.99" y="569" as="sourcePoint" />
            <mxPoint x="639.99" y="619" as="targetPoint" />
            <Array as="points">
              <mxPoint x="639.99" y="620" />
            </Array>
          </mxGeometry>
        </mxCell>
        <mxCell id="6sIepBBf1dvNzspZAciI-185" value="id" style="ellipse;whiteSpace=wrap;html=1;align=center;fontStyle=4;" parent="1" vertex="1">
          <mxGeometry x="620" y="530" width="40" height="40" as="geometry" />
        </mxCell>
        <mxCell id="6sIepBBf1dvNzspZAciI-188" style="edgeStyle=orthogonalEdgeStyle;rounded=0;orthogonalLoop=1;jettySize=auto;html=1;entryX=0.5;entryY=1;entryDx=0;entryDy=0;endArrow=none;endFill=0;" parent="1" source="M2HLEfJKPl1N2a8TyETv-20" target="Xl_F5yLaofZVcRbHejWL-6" edge="1">
          <mxGeometry relative="1" as="geometry" />
        </mxCell>
        <mxCell id="6sIepBBf1dvNzspZAciI-189" style="edgeStyle=orthogonalEdgeStyle;rounded=0;orthogonalLoop=1;jettySize=auto;html=1;exitX=0.5;exitY=1;exitDx=0;exitDy=0;entryX=0.5;entryY=0;entryDx=0;entryDy=0;endArrow=none;endFill=0;" parent="1" source="6sIepBBf1dvNzspZAciI-187" target="Xl_F5yLaofZVcRbHejWL-21" edge="1">
          <mxGeometry relative="1" as="geometry">
            <Array as="points">
              <mxPoint x="770" y="800" />
            </Array>
          </mxGeometry>
        </mxCell>
        <mxCell id="6sIepBBf1dvNzspZAciI-190" style="edgeStyle=orthogonalEdgeStyle;rounded=0;orthogonalLoop=1;jettySize=auto;html=1;endArrow=none;endFill=0;" parent="1" edge="1">
          <mxGeometry relative="1" as="geometry">
            <mxPoint x="819.9978585704771" y="800.0028552393644" as="sourcePoint" />
            <mxPoint x="880" y="870" as="targetPoint" />
            <Array as="points">
              <mxPoint x="880" y="800" />
              <mxPoint x="880" y="870" />
            </Array>
          </mxGeometry>
        </mxCell>
        <mxCell id="6sIepBBf1dvNzspZAciI-187" value="" style="triangle;whiteSpace=wrap;html=1;rotation=90;" parent="1" vertex="1">
          <mxGeometry x="805" y="785" width="20" height="30" as="geometry" />
        </mxCell>
        <mxCell id="6sIepBBf1dvNzspZAciI-191" value="(1,n)" style="text;html=1;align=center;verticalAlign=middle;resizable=0;points=[];autosize=1;strokeColor=none;fillColor=none;" parent="1" vertex="1">
          <mxGeometry x="375" y="710" width="50" height="30" as="geometry" />
        </mxCell>
        <mxCell id="6sIepBBf1dvNzspZAciI-192" value="(1,n)" style="text;html=1;align=center;verticalAlign=middle;resizable=0;points=[];autosize=1;strokeColor=none;fillColor=none;" parent="1" vertex="1">
          <mxGeometry x="525" y="710" width="50" height="30" as="geometry" />
        </mxCell>
        <mxCell id="6sIepBBf1dvNzspZAciI-193" value="N:M" style="text;html=1;align=center;verticalAlign=middle;resizable=0;points=[];autosize=1;strokeColor=none;fillColor=none;" parent="1" vertex="1">
          <mxGeometry x="452.5" y="760" width="50" height="30" as="geometry" />
        </mxCell>
        <mxCell id="6sIepBBf1dvNzspZAciI-195" value="(1,n)" style="text;html=1;align=center;verticalAlign=middle;resizable=0;points=[];autosize=1;strokeColor=none;fillColor=none;" parent="1" vertex="1">
          <mxGeometry x="675" y="715" width="50" height="30" as="geometry" />
        </mxCell>
        <mxCell id="6sIepBBf1dvNzspZAciI-196" value="(1,n)" style="text;html=1;align=center;verticalAlign=middle;resizable=0;points=[];autosize=1;strokeColor=none;fillColor=none;" parent="1" vertex="1">
          <mxGeometry x="635" y="760" width="50" height="30" as="geometry" />
        </mxCell>
        <mxCell id="6sIepBBf1dvNzspZAciI-198" value="" style="edgeStyle=orthogonalEdgeStyle;rounded=0;orthogonalLoop=1;jettySize=auto;html=1;endArrow=none;endFill=0;" parent="1" target="6sIepBBf1dvNzspZAciI-197" edge="1">
          <mxGeometry relative="1" as="geometry">
            <mxPoint x="625" y="685" as="targetPoint" />
            <mxPoint x="625" y="660" as="sourcePoint" />
          </mxGeometry>
        </mxCell>
        <mxCell id="6sIepBBf1dvNzspZAciI-197" value="" style="ellipse;whiteSpace=wrap;html=1;aspect=fixed;" parent="1" vertex="1">
          <mxGeometry x="620" y="675" width="10" height="10" as="geometry" />
        </mxCell>
        <mxCell id="6sIepBBf1dvNzspZAciI-199" value="N:M" style="text;html=1;align=center;verticalAlign=middle;resizable=0;points=[];autosize=1;strokeColor=none;fillColor=none;" parent="1" vertex="1">
          <mxGeometry x="680" y="840" width="50" height="30" as="geometry" />
        </mxCell>
        <mxCell id="6sIepBBf1dvNzspZAciI-203" value="" style="triangle;whiteSpace=wrap;html=1;rotation=90;" parent="1" vertex="1">
          <mxGeometry x="655" y="145" width="20" height="30" as="geometry" />
        </mxCell>
        <mxCell id="6sIepBBf1dvNzspZAciI-204" value="" style="ellipse;whiteSpace=wrap;html=1;aspect=fixed;" parent="1" vertex="1">
          <mxGeometry x="660" y="140" width="10" height="10" as="geometry" />
        </mxCell>
        <mxCell id="6sIepBBf1dvNzspZAciI-205" style="edgeStyle=orthogonalEdgeStyle;rounded=0;orthogonalLoop=1;jettySize=auto;html=1;endArrow=none;endFill=0;" parent="1" source="6sIepBBf1dvNzspZAciI-204" edge="1">
          <mxGeometry relative="1" as="geometry">
            <mxPoint x="665" y="130" as="targetPoint" />
            <Array as="points">
              <mxPoint x="665" y="130" />
              <mxPoint x="665" y="130" />
            </Array>
          </mxGeometry>
        </mxCell>
        <mxCell id="6sIepBBf1dvNzspZAciI-206" value="(1,1)" style="text;html=1;align=center;verticalAlign=middle;resizable=0;points=[];autosize=1;strokeColor=none;fillColor=none;" parent="1" vertex="1">
          <mxGeometry x="252.5" y="90" width="50" height="30" as="geometry" />
        </mxCell>
        <mxCell id="6sIepBBf1dvNzspZAciI-207" value="(1,1)" style="text;html=1;align=center;verticalAlign=middle;resizable=0;points=[];autosize=1;strokeColor=none;fillColor=none;" parent="1" vertex="1">
          <mxGeometry x="325" y="215" width="50" height="30" as="geometry" />
        </mxCell>
        <mxCell id="6sIepBBf1dvNzspZAciI-208" value="1:1" style="text;html=1;align=center;verticalAlign=middle;resizable=0;points=[];autosize=1;strokeColor=none;fillColor=none;" parent="1" vertex="1">
          <mxGeometry x="390" y="105" width="40" height="30" as="geometry" />
        </mxCell>
        <mxCell id="6sIepBBf1dvNzspZAciI-209" value="(1,1)" style="text;html=1;align=center;verticalAlign=middle;resizable=0;points=[];autosize=1;strokeColor=none;fillColor=none;" parent="1" vertex="1">
          <mxGeometry x="590" y="240" width="50" height="30" as="geometry" />
        </mxCell>
        <mxCell id="6sIepBBf1dvNzspZAciI-210" value="(1,1)" style="text;html=1;align=center;verticalAlign=middle;resizable=0;points=[];autosize=1;strokeColor=none;fillColor=none;" parent="1" vertex="1">
          <mxGeometry x="445" y="440" width="50" height="30" as="geometry" />
        </mxCell>
        <mxCell id="6sIepBBf1dvNzspZAciI-212" value="1:1" style="text;html=1;align=center;verticalAlign=middle;resizable=0;points=[];autosize=1;strokeColor=none;fillColor=none;" parent="1" vertex="1">
          <mxGeometry x="660" y="420" width="40" height="30" as="geometry" />
        </mxCell>
        <mxCell id="6sIepBBf1dvNzspZAciI-215" value="conduce" style="shape=rhombus;perimeter=rhombusPerimeter;whiteSpace=wrap;html=1;align=center;" parent="1" vertex="1">
          <mxGeometry x="495" y="293" width="70" height="50" as="geometry" />
        </mxCell>
        <mxCell id="6sIepBBf1dvNzspZAciI-216" style="edgeStyle=orthogonalEdgeStyle;rounded=0;orthogonalLoop=1;jettySize=auto;html=1;endArrow=none;endFill=0;" parent="1" source="6sIepBBf1dvNzspZAciI-215" edge="1">
          <mxGeometry relative="1" as="geometry">
            <mxPoint x="530" y="390" as="targetPoint" />
          </mxGeometry>
        </mxCell>
        <mxCell id="6sIepBBf1dvNzspZAciI-220" value="(1,1)" style="text;html=1;align=center;verticalAlign=middle;resizable=0;points=[];autosize=1;strokeColor=none;fillColor=none;" parent="1" vertex="1">
          <mxGeometry x="505" y="240" width="50" height="30" as="geometry" />
        </mxCell>
        <mxCell id="6sIepBBf1dvNzspZAciI-221" value="(1,1)" style="text;html=1;align=center;verticalAlign=middle;resizable=0;points=[];autosize=1;strokeColor=none;fillColor=none;" parent="1" vertex="1">
          <mxGeometry x="490" y="360" width="50" height="30" as="geometry" />
        </mxCell>
        <mxCell id="6sIepBBf1dvNzspZAciI-222" value="1:1" style="text;html=1;align=center;verticalAlign=middle;resizable=0;points=[];autosize=1;strokeColor=none;fillColor=none;" parent="1" vertex="1">
          <mxGeometry x="457.5" y="303" width="40" height="30" as="geometry" />
        </mxCell>
        <mxCell id="6sIepBBf1dvNzspZAciI-223" value="investiga" style="shape=rhombus;perimeter=rhombusPerimeter;whiteSpace=wrap;html=1;align=center;" parent="1" vertex="1">
          <mxGeometry x="820" y="515" width="90" height="40" as="geometry" />
        </mxCell>
        <mxCell id="6sIepBBf1dvNzspZAciI-226" value="(1,n)" style="text;html=1;align=center;verticalAlign=middle;resizable=0;points=[];autosize=1;strokeColor=none;fillColor=none;" parent="1" vertex="1">
          <mxGeometry x="820" y="360" width="50" height="30" as="geometry" />
        </mxCell>
        <mxCell id="6sIepBBf1dvNzspZAciI-227" value="(1,n)" style="text;html=1;align=center;verticalAlign=middle;resizable=0;points=[];autosize=1;strokeColor=none;fillColor=none;" parent="1" vertex="1">
          <mxGeometry x="865" y="240" width="50" height="30" as="geometry" />
        </mxCell>
        <mxCell id="6sIepBBf1dvNzspZAciI-228" value="N:M" style="text;html=1;align=center;verticalAlign=middle;resizable=0;points=[];autosize=1;strokeColor=none;fillColor=none;" parent="1" vertex="1">
          <mxGeometry x="905" y="293" width="50" height="30" as="geometry" />
        </mxCell>
        <mxCell id="6sIepBBf1dvNzspZAciI-229" value="(1,1)" style="text;html=1;align=center;verticalAlign=middle;resizable=0;points=[];autosize=1;strokeColor=none;fillColor=none;" parent="1" vertex="1">
          <mxGeometry x="670" y="615" width="50" height="30" as="geometry" />
        </mxCell>
        <mxCell id="6sIepBBf1dvNzspZAciI-230" value="(1,n)" style="text;html=1;align=center;verticalAlign=middle;resizable=0;points=[];autosize=1;strokeColor=none;fillColor=none;" parent="1" vertex="1">
          <mxGeometry x="860" y="430" width="50" height="30" as="geometry" />
        </mxCell>
        <mxCell id="6sIepBBf1dvNzspZAciI-231" value="1:N" style="text;html=1;align=center;verticalAlign=middle;resizable=0;points=[];autosize=1;strokeColor=none;fillColor=none;" parent="1" vertex="1">
          <mxGeometry x="910" y="520" width="40" height="30" as="geometry" />
        </mxCell>
        <mxCell id="M2HLEfJKPl1N2a8TyETv-2" value="(1,n)" style="text;html=1;align=center;verticalAlign=middle;resizable=0;points=[];autosize=1;strokeColor=none;fillColor=none;" parent="1" vertex="1">
          <mxGeometry x="-70" y="318" width="50" height="30" as="geometry" />
        </mxCell>
        <mxCell id="M2HLEfJKPl1N2a8TyETv-3" value="(1,1)" style="text;html=1;align=center;verticalAlign=middle;resizable=0;points=[];autosize=1;strokeColor=none;fillColor=none;" parent="1" vertex="1">
          <mxGeometry x="150" y="273" width="50" height="30" as="geometry" />
        </mxCell>
        <mxCell id="M2HLEfJKPl1N2a8TyETv-4" value="1:N" style="text;html=1;align=center;verticalAlign=middle;resizable=0;points=[];autosize=1;strokeColor=none;fillColor=none;" parent="1" vertex="1">
          <mxGeometry x="47.5" y="210" width="40" height="30" as="geometry" />
        </mxCell>
        <mxCell id="M2HLEfJKPl1N2a8TyETv-5" value="(1,n)" style="text;html=1;align=center;verticalAlign=middle;resizable=0;points=[];autosize=1;strokeColor=none;fillColor=none;" parent="1" vertex="1">
          <mxGeometry x="130" y="80" width="50" height="30" as="geometry" />
        </mxCell>
        <mxCell id="M2HLEfJKPl1N2a8TyETv-6" value="(1,n)" style="text;html=1;align=center;verticalAlign=middle;resizable=0;points=[];autosize=1;strokeColor=none;fillColor=none;" parent="1" vertex="1">
          <mxGeometry x="-40" y="70" width="50" height="30" as="geometry" />
        </mxCell>
        <mxCell id="M2HLEfJKPl1N2a8TyETv-7" value="N:M" style="text;html=1;align=center;verticalAlign=middle;resizable=0;points=[];autosize=1;strokeColor=none;fillColor=none;" parent="1" vertex="1">
          <mxGeometry x="47.5" y="130" width="50" height="30" as="geometry" />
        </mxCell>
        <mxCell id="M2HLEfJKPl1N2a8TyETv-8" value="(1,n)" style="text;html=1;align=center;verticalAlign=middle;resizable=0;points=[];autosize=1;strokeColor=none;fillColor=none;" parent="1" vertex="1">
          <mxGeometry x="-190" y="100" width="50" height="30" as="geometry" />
        </mxCell>
        <mxCell id="M2HLEfJKPl1N2a8TyETv-9" value="(1,n)" style="text;html=1;align=center;verticalAlign=middle;resizable=0;points=[];autosize=1;strokeColor=none;fillColor=none;" parent="1" vertex="1">
          <mxGeometry x="-360" y="288" width="50" height="30" as="geometry" />
        </mxCell>
        <mxCell id="M2HLEfJKPl1N2a8TyETv-10" value="N:M" style="text;html=1;align=center;verticalAlign=middle;resizable=0;points=[];autosize=1;strokeColor=none;fillColor=none;" parent="1" vertex="1">
          <mxGeometry x="-322.5" y="50" width="50" height="30" as="geometry" />
        </mxCell>
        <mxCell id="M2HLEfJKPl1N2a8TyETv-11" value="(1,n)" style="text;html=1;align=center;verticalAlign=middle;resizable=0;points=[];autosize=1;strokeColor=none;fillColor=none;" parent="1" vertex="1">
          <mxGeometry x="-325" y="360" width="50" height="30" as="geometry" />
        </mxCell>
        <mxCell id="M2HLEfJKPl1N2a8TyETv-12" value="(1,1)" style="text;html=1;align=center;verticalAlign=middle;resizable=0;points=[];autosize=1;strokeColor=none;fillColor=none;" parent="1" vertex="1">
          <mxGeometry x="-125" y="370" width="50" height="30" as="geometry" />
        </mxCell>
        <mxCell id="M2HLEfJKPl1N2a8TyETv-13" value="1:N" style="text;html=1;align=center;verticalAlign=middle;resizable=0;points=[];autosize=1;strokeColor=none;fillColor=none;" parent="1" vertex="1">
          <mxGeometry x="-137.5" y="500" width="40" height="30" as="geometry" />
        </mxCell>
        <mxCell id="M2HLEfJKPl1N2a8TyETv-14" value="(1,1)" style="text;html=1;align=center;verticalAlign=middle;resizable=0;points=[];autosize=1;strokeColor=none;fillColor=none;" parent="1" vertex="1">
          <mxGeometry x="-165" y="300" width="50" height="30" as="geometry" />
        </mxCell>
        <mxCell id="M2HLEfJKPl1N2a8TyETv-15" value="(1,n)" style="text;html=1;align=center;verticalAlign=middle;resizable=0;points=[];autosize=1;strokeColor=none;fillColor=none;" parent="1" vertex="1">
          <mxGeometry x="-90" y="120" width="50" height="30" as="geometry" />
        </mxCell>
        <mxCell id="M2HLEfJKPl1N2a8TyETv-16" value="1:N" style="text;html=1;align=center;verticalAlign=middle;resizable=0;points=[];autosize=1;strokeColor=none;fillColor=none;" parent="1" vertex="1">
          <mxGeometry x="-120" y="215" width="40" height="30" as="geometry" />
        </mxCell>
        <mxCell id="M2HLEfJKPl1N2a8TyETv-17" value="(1,1)" style="text;html=1;align=center;verticalAlign=middle;resizable=0;points=[];autosize=1;strokeColor=none;fillColor=none;" parent="1" vertex="1">
          <mxGeometry x="212.5" y="273" width="50" height="30" as="geometry" />
        </mxCell>
        <mxCell id="M2HLEfJKPl1N2a8TyETv-18" value="(1,n)" style="text;html=1;align=center;verticalAlign=middle;resizable=0;points=[];autosize=1;strokeColor=none;fillColor=none;" parent="1" vertex="1">
          <mxGeometry x="220" y="140" width="50" height="30" as="geometry" />
        </mxCell>
        <mxCell id="M2HLEfJKPl1N2a8TyETv-19" value="1:N" style="text;html=1;align=center;verticalAlign=middle;resizable=0;points=[];autosize=1;strokeColor=none;fillColor=none;" parent="1" vertex="1">
          <mxGeometry x="262.5" y="205" width="40" height="30" as="geometry" />
        </mxCell>
        <mxCell id="M2HLEfJKPl1N2a8TyETv-20" value="" style="ellipse;whiteSpace=wrap;html=1;aspect=fixed;" parent="1" vertex="1">
          <mxGeometry x="810" y="780" width="10" height="10" as="geometry" />
        </mxCell>
        <mxCell id="kf9VSYi2ukafjUAbFlcW-1" value="(1,1)" style="text;html=1;align=center;verticalAlign=middle;resizable=0;points=[];autosize=1;strokeColor=none;fillColor=none;" vertex="1" parent="1">
          <mxGeometry x="725" y="243" width="50" height="30" as="geometry" />
        </mxCell>
        <mxCell id="kf9VSYi2ukafjUAbFlcW-2" value="(1,1)" style="text;html=1;align=center;verticalAlign=middle;resizable=0;points=[];autosize=1;strokeColor=none;fillColor=none;" vertex="1" parent="1">
          <mxGeometry x="390" y="500" width="50" height="30" as="geometry" />
        </mxCell>
        <mxCell id="kf9VSYi2ukafjUAbFlcW-3" value="1:1" style="text;html=1;align=center;verticalAlign=middle;resizable=0;points=[];autosize=1;strokeColor=none;fillColor=none;" vertex="1" parent="1">
          <mxGeometry x="510" y="520" width="40" height="30" as="geometry" />
        </mxCell>
        <mxCell id="kf9VSYi2ukafjUAbFlcW-4" value="ID" style="text;html=1;align=center;verticalAlign=middle;resizable=0;points=[];autosize=1;strokeColor=none;fillColor=none;" vertex="1" parent="1">
          <mxGeometry x="185" y="185" width="40" height="30" as="geometry" />
        </mxCell>
      </root>
    </mxGraphModel>
  </diagram>
</mxfile>
